<?xml version="1.0" encoding="utf-8"?>
<!-- Generator: Adobe Illustrator 22.1.0, SVG Export Plug-In . SVG Version: 6.00 Build 0)  -->
<svg version="1.1" id="Layer_1" xmlns="http://www.w3.org/2000/svg" xmlns:xlink="http://www.w3.org/1999/xlink" x="0px" y="0px"
	 viewBox="0 0 135.2 61.1" style="enable-background:new 0 0 135.2 61.1;" xml:space="preserve">
<style type="text/css">
	.st0{clip-path:url(#SVGID_2_);fill:#FFFFFF;}
	.st1{clip-path:url(#SVGID_2_);}
	.st2{clip-path:url(#SVGID_4_);fill:#A32035;}
	.st3{clip-path:url(#SVGID_4_);fill:#FFFFFF;}
</style>
<g>
	<g>
		<defs>
			<rect id="SVGID_1_" width="59" height="59"/>
		</defs>
		<clipPath id="SVGID_2_">
			<use xlink:href="#SVGID_1_"  style="overflow:visible;"/>
		</clipPath>
		<rect x="0.4" y="0.6" class="st0" width="57.7" height="57.9"/>
		<g class="st1">
			<defs>
				<rect id="SVGID_3_" y="0" width="59" height="59"/>
			</defs>
			<clipPath id="SVGID_4_">
				<use xlink:href="#SVGID_3_"  style="overflow:visible;"/>
			</clipPath>
			<path class="st2" d="M44.8,29.5L44.8,29.5c-1-1.5-3-2.9-6.4-3.2v3.2v0v0.1v9.9c2.9-0.8,7.4-2.1,7.4-6.7
				C45.8,31.8,45.5,30.6,44.8,29.5"/>
			<path class="st2" d="M53.5,29.5v-24H35.8v4.1c-1.5-0.8-3.6-1.8-6.3-2.2c-0.7-0.1-1.5-0.2-2.4-0.2c-7.4,0-12.6,5.5-12.6,12.9
				c0,3.7,1.3,7,3.7,9.4l0,0c1.6,1.6,3.8,2.6,6.3,3c0.7,0.1,1.4,0.2,2.1,0.2c0.8,0,1.6-0.1,2.3-0.2c0.1,0,0.2,0,0.4-0.1
				c1.8-0.3,3.2-0.9,4.4-1.6V30c0-0.2,0-0.3,0-0.5v0c0-3.1-0.5-4.7-0.8-5.7l5.9-0.1c6-0.1,9.5,2.7,10.8,5.8l0,0
				c0.4,0.9,0.6,1.9,0.6,2.8c0,4.9-4.3,7.3-5.7,8c2.4,4.2,5.6,8.3,8.8,12.2V29.5L53.5,29.5L53.5,29.5L53.5,29.5z"/>
			<path class="st2" d="M9.3,20.6c0-6,3.4-11.9,9.3-15.2H5.5v17.7h4C9.4,22.2,9.3,21.4,9.3,20.6"/>
			<path class="st2" d="M29.5,53.5h3.7c0.6-2.8,0.7-5,0.7-7.5V35.4c-1.2,0.5-2.6,0.9-4.4,1.2c-0.4,0.1-0.7,0.1-1.1,0.1
				c-0.1,0.7-0.1,1.5-0.1,2.5v11.5c0,1.1,0,2,0.1,2.8H29.5z"/>
			<path class="st2" d="M11.8,29.5L11.8,29.5c-0.8-1.3-1.4-2.7-1.8-4c-0.2,0.9-0.3,2.2-0.4,4v0c0,0.4,0,0.7,0,1.1L9.4,50.5
				c5.5-0.5,8.5-1.3,11.8-2.6l-2.5,5.7h5.7c0.1-0.8,0.1-1.8,0.1-3.1v-12c0-0.7,0-1.2-0.1-1.8C18,36.3,14,33.2,11.8,29.5"/>
			<path class="st2" d="M50.2,53.5c-3.8-3.3-5.7-5.6-11.8-13.6v7.4c0,2.3,0,3.2,0.8,6.2H50.2z"/>
			<path class="st2" d="M56.5,2.5H2.5v54.1h54.1V2.5z M55.8,55.8H3.2V3.2h52.6V55.8z"/>
			<path class="st2" d="M0,59h59V0H0V59z M57.5,57.5h-56v-56h56V57.5z"/>
			<path class="st3" d="M44.7,40.3c1.4-0.7,5.7-3.1,5.7-8c0-0.9-0.2-1.9-0.6-2.8c0,0,0,0,0,0c-1.3-3.1-4.8-5.9-10.8-5.8l-5.9,0.1
				c0.3,1,0.7,2.5,0.8,5.7v0c0,0.2,0,0.3,0,0.5v0.9c-1.2,0.7-2.6,1.3-4.4,1.6c-0.1,0-0.2,0-0.4,0.1c-0.7,0.1-1.5,0.2-2.3,0.2
				c-0.7,0-1.4-0.1-2.1-0.2c-2.6-0.4-4.7-1.5-6.3-3c0,0,0,0,0,0c-2.4-2.3-3.7-5.7-3.7-9.4c0-7.4,5.2-12.9,12.6-12.9
				c0.8,0,1.6,0.1,2.4,0.2c2.7,0.4,4.7,1.4,6.3,2.2V5.5h-6.3H18.6c-5.9,3.2-9.3,9.2-9.3,15.2c0,0.8,0.1,1.6,0.2,2.5h-4v6.3v0v24
				h13.2l2.5-5.7c-3.3,1.3-6.3,2.2-11.8,2.6l0.2-19.9c0-0.4,0-0.8,0-1.1v0h0c0.1-1.8,0.2-3,0.4-4c0.4,1.3,1,2.7,1.7,4c0,0,0,0,0,0
				c2.2,3.7,6.2,6.8,12.7,7.2c0,0.5,0.1,1.1,0.1,1.8v11.9c0,1.2,0,2.3-0.1,3.1h4c-0.1-0.8-0.1-1.7-0.1-2.8V39.2c0-1,0-1.8,0.1-2.5
				c0.4,0,0.8-0.1,1.1-0.1c1.8-0.3,3.2-0.7,4.4-1.2V46c0,2.5-0.2,4.7-0.7,7.5h6c-0.7-3-0.8-4-0.8-6.2v-7.4c6,8,8,10.3,11.8,13.6h3.4
				v-1C50.3,48.6,47.1,44.6,44.7,40.3 M38.4,39.5v-9.9v0v-3.2c3.5,0.3,5.4,1.7,6.4,3.2c0,0,0,0,0,0c0.7,1.1,1,2.3,1,3.2
				C45.8,37.4,41.2,38.7,38.4,39.5"/>
		</g>
	</g>
</g>
<g>
	<path d="M73.4,4c-0.6-0.3-1.5-0.8-2.7-0.8c-2.3,0-4,1.7-4,4.1c0,2.1,1.4,4,3.9,4c1.6,0,2.5-0.7,3.1-1.1l-0.1,1.6
		c-0.7,0.3-1.6,0.8-3.3,0.8c-4.1,0-5.3-3.2-5.3-5.1C65,4.7,67.4,2,71.1,2c1.1,0,1.7,0.2,2.3,0.4V4z"/>
	<path d="M80.9,8.6c0,3.2-2.7,4-3.6,4c-1.4,0-3.3-0.9-3.3-3.5c0-3.1,2.1-3.7,3.3-4C79.4,5.1,80.9,6.5,80.9,8.6z M79.6,8.9
		c0-1.5-0.9-2.8-2.2-2.8c-1,0-1.8,0.9-1.8,2.5c0,2.1,1.4,3.1,2.7,3C78.8,11.2,79.6,10.5,79.6,8.9z"/>
	<path d="M84.3,5.2c-0.3,0.4-0.4,0.6-0.4,1.2v4c0.2,1,1,1,1.1,1c0.6,0,1.1-0.3,1.4-0.5v-4c0-0.7,0-1.1-0.3-1.7l2.1,0
		C88,5.7,87.8,6,87.8,6.6v4.3c0,1,0.2,1.5,0.3,1.7h-1.7c0.1-0.7,0.1-0.8,0.1-1.5l-1.1,1.2c-0.2,0.1-0.6,0.3-1.1,0.3
		c-0.3,0-1.2-0.1-1.8-1.3l0-4.1c0-1-0.1-1.4-0.4-1.9H84.3z"/>
	<path d="M92.7,5.5c0.3-0.2,0.6-0.3,1.1-0.3c0.7,0,1.8,0.5,1.8,1.9v4.2c0,0.6,0.1,0.8,0.3,1.3H94c0.2-0.6,0.2-0.9,0.2-1.2v-4
		c0-0.3-0.3-1-1.3-1c-0.7,0-1,0.2-1.3,0.4v4.2c0,0.8,0,1,0.1,1.6h-1.9c0.3-0.7,0.4-1.5,0.4-2.2V6.4c0-0.2-0.1-0.8-0.2-1.2h1.6l0,1.4
		L92.7,5.5z"/>
	<path d="M102.5,6.9c-0.3-0.3-0.7-0.7-1.6-0.7c-1.6,0-2.1,1.5-2.1,2.5c0,2.1,1.4,2.7,2.3,2.7c0.6,0,1.1-0.2,1.6-0.3l-0.8,1.2
		c-0.3,0.1-0.7,0.2-1.2,0.2c-1.9,0-3.4-1.5-3.4-3.4c0-1,0.5-3.9,3.8-3.9c0.6,0,1,0.1,1.4,0.1L102.5,6.9z"/>
	<path d="M105.6,5.2c-0.2,0.4-0.4,0.7-0.4,1.8v3.5c0,1.3,0.2,1.7,0.4,2h-2.3c0.3-0.5,0.4-0.7,0.4-2.1V7.1c0-0.9-0.1-1.3-0.4-1.8
		H105.6z M105.6,3.2c0,0.4-0.3,1.1-1,1.1c-0.5,0-1-0.4-1-1.1c0-0.7,0.5-1.1,1-1.1C105.2,2.1,105.6,2.7,105.6,3.2z"/>
	<path d="M109.2,2C109,2.9,109,3.7,109,4.4v6c0,1,0.1,1.3,0.4,2.2H107c0.2-0.3,0.5-1,0.5-1.7l0-6.9c0-0.7-0.1-1-0.3-1.6L109.2,2z"/>
	<path d="M121.9,8.6c0,3.2-2.7,4-3.6,4c-1.4,0-3.3-0.9-3.3-3.5c0-3.1,2.1-3.7,3.3-4C120.3,5.1,121.9,6.5,121.9,8.6z M120.6,8.9
		c0-1.5-0.9-2.8-2.2-2.8c-1,0-1.8,0.9-1.8,2.5c0,2.1,1.4,3.1,2.7,3C119.8,11.2,120.6,10.5,120.6,8.9z"/>
	<path d="M125.9,5.5c0.3-0.2,0.6-0.3,1.1-0.3c0.7,0,1.8,0.5,1.8,1.9v4.2c0,0.6,0.1,0.8,0.3,1.3h-1.9c0.2-0.6,0.2-0.9,0.2-1.2v-4
		c0-0.3-0.3-1-1.3-1c-0.7,0-1,0.2-1.3,0.4v4.2c0,0.8,0,1,0.1,1.6h-1.9c0.3-0.7,0.4-1.5,0.4-2.2V6.4c0-0.2-0.1-0.8-0.2-1.2h1.6l0,1.4
		L125.9,5.5z"/>
	<path d="M70.6,27.6h-5.1c0.3-0.7,0.4-1.1,0.4-3.4v-4.6c0-1.5-0.2-2-0.4-2.5h2.4c-0.2,0.5-0.4,1-0.4,2.6l-0.1,6.8
		c1.9-0.2,2.9-0.5,4-0.9L70.6,27.6z"/>
	<path d="M74.4,20.2C74.2,20.6,74,20.9,74,22v3.5c0,1.3,0.2,1.7,0.4,2h-2.3c0.3-0.5,0.4-0.7,0.4-2.1v-3.4c0-0.9-0.1-1.3-0.4-1.8
		H74.4z M74.4,18.2c0,0.4-0.3,1.1-1,1.1c-0.5,0-1-0.4-1-1.1c0-0.7,0.5-1.1,1-1.1C74,17.1,74.4,17.7,74.4,18.2z"/>
	<path d="M78.1,17c0,0.2-0.2,1.3-0.2,1.5c0,0.4-0.1,1.2-0.1,1.4v1.9l1.1-1.2c0.6-0.3,0.8-0.3,1.1-0.3c0.7,0,2.5,0.5,2.5,3
		c0,2.2-1.1,3.3-2.5,3.9c-0.8,0.3-1.2,0.4-2.4,0.4l-1.4,0c0.3-0.9,0.4-1.3,0.4-2.5v-5.1c0-1.2,0-1.6-0.3-2.5L78.1,17z M77.8,26.5
		c0.2,0,1,0.1,1.1,0.1c0.1,0,1.9,0,1.9-2.6c0-0.5-0.1-1.3-0.5-1.8c-0.2-0.3-0.7-0.6-1.3-0.6c-0.5,0-0.8,0.2-1.2,0.4V26.5z"/>
	<path d="M85.5,20.2c-0.1,0.4-0.1,0.5-0.1,1v0.9c0.4-0.8,0.9-1.9,2.1-1.9c0.3,0,0.4,0.1,0.7,0.2L88,22.2c-0.4-0.4-0.6-0.5-1.1-0.5
		c-0.8,0-1.2,0.4-1.5,0.6v3.5c0,1.1,0.1,1.3,0.4,1.7h-2.1c0.3-0.5,0.4-0.7,0.4-1.4v-4.7c0-0.3,0-0.6-0.2-1.3H85.5z"/>
	<path d="M89.6,20.5l0.9-0.2c0.3-0.1,0.5-0.1,0.6-0.1c1.4,0,1.9,0.8,2.1,1c0.2,0.4,0.2,0.6,0.2,1.1l0.1,4.2c0,0.2,0.1,0.6,0.3,1
		h-1.7v-1c-0.5,0.4-0.7,0.5-1.2,1c-0.1,0-0.4,0.1-0.6,0.1c-0.6,0-1.8-0.5-1.8-1.7c0-1.3,1.6-2,2.6-2.4c0.7-0.3,0.8-0.3,1.1-0.5v-0.4
		c0-0.4,0-0.5-0.1-0.6c-0.2-0.4-0.8-0.7-1.5-0.7c-0.5,0-0.9,0.2-1.4,0.5L89.6,20.5z M92.2,24.3h-1.9C90.1,24.7,90,25,90,25.5
		c0,0.8,0.7,1.1,1.4,1.1c0.3,0,0.5-0.1,0.8-0.1V24.3z"/>
	<path d="M97.3,20.2c-0.1,0.4-0.1,0.5-0.1,1v0.9c0.4-0.8,0.9-1.9,2.1-1.9c0.3,0,0.4,0.1,0.7,0.2l-0.2,1.8c-0.4-0.4-0.6-0.5-1.1-0.5
		c-0.8,0-1.2,0.4-1.5,0.6v3.5c0,1.1,0.1,1.3,0.4,1.7h-2.1c0.3-0.5,0.4-0.7,0.4-1.4v-4.7c0-0.3,0-0.6-0.2-1.3H97.3z"/>
	<path d="M102.4,20.2c0.1,0.4,0.2,0.8,0.3,1.1l1.4,3.5c1.3-3.5,1.3-3.7,1.3-4.6h2.2c-0.5,0.7-0.7,1-1.7,3.6l-1,2.6
		c-0.3,0.8-1.2,2.7-1.4,2.9l-0.8,0.6h-1.4l0.9-1.1c0.3-0.3,0.5-0.9,1.1-2c-0.4-1.1-1.1-2.6-1.6-3.9c-0.1-0.3-0.6-1.6-1.3-2.5H102.4z
		"/>
	<path d="M113.9,20.5l0.9-0.2c0.3-0.1,0.5-0.1,0.6-0.1c1.4,0,1.9,0.8,2.1,1c0.2,0.4,0.2,0.6,0.2,1.1l0.1,4.2c0,0.2,0.1,0.6,0.3,1
		h-1.7v-1c-0.5,0.4-0.7,0.5-1.2,1c-0.1,0-0.4,0.1-0.6,0.1c-0.6,0-1.8-0.5-1.8-1.7c0-1.3,1.6-2,2.6-2.4c0.7-0.3,0.8-0.3,1.1-0.5v-0.4
		c0-0.4,0-0.5-0.1-0.6c-0.2-0.4-0.8-0.7-1.5-0.7c-0.5,0-0.9,0.2-1.4,0.5L113.9,20.5z M116.4,24.3h-1.9c-0.2,0.4-0.3,0.7-0.3,1.1
		c0,0.8,0.7,1.1,1.4,1.1c0.3,0,0.5-0.1,0.8-0.1V24.3z"/>
	<path d="M122.4,20.5c0.3-0.2,0.6-0.3,1.1-0.3c0.7,0,1.8,0.5,1.8,1.9v4.2c0,0.6,0.1,0.8,0.3,1.3h-1.9c0.2-0.6,0.2-0.9,0.2-1.2v-4
		c0-0.3-0.3-1-1.3-1c-0.7,0-1,0.2-1.3,0.4v4.2c0,0.8,0,1,0.1,1.6h-1.9c0.3-0.7,0.4-1.5,0.4-2.2v-3.9c0-0.2-0.1-0.8-0.2-1.2h1.6
		l0,1.4L122.4,20.5z"/>
	<path d="M133.4,17c-0.1,0.5-0.3,1.1-0.3,2.2v7.1c0,0.3,0,0.5,0.3,1.2h-1.6v-1.2c-0.5,0.6-1.1,1.2-2.1,1.2c-1.4,0-2.8-1.2-2.8-3.1
		c0-2.1,1.8-4.1,3.9-4.1c0.4,0,0.7,0.1,1,0.2v-1.3c0-1-0.2-1.4-0.3-1.8L133.4,17z M131.8,21.8c-0.2-0.2-0.6-0.6-1.4-0.6
		c-0.6,0-1,0.2-1.4,0.5c-0.3,0.5-0.6,1.1-0.6,2.1c0,2.5,2.2,2.6,2.5,2.6c0.5,0,0.7-0.2,0.9-0.3V21.8z"/>
	<path d="M67.8,32c-0.2,0.6-0.4,1.2-0.4,2.8v4.8c0,1.2,0.1,1.8,0.4,2.9h-2.4c0.2-0.7,0.4-1.3,0.4-3v-5c0-1.2-0.1-1.8-0.4-2.5H67.8z"
		/>
	<path d="M72.1,35.5c0.3-0.2,0.6-0.3,1.1-0.3c0.7,0,1.8,0.5,1.8,1.9v4.2c0,0.6,0.1,0.8,0.3,1.3h-1.9c0.2-0.6,0.2-0.9,0.2-1.2v-4
		c0-0.3-0.3-1-1.3-1c-0.7,0-1,0.2-1.3,0.4v4.2c0,0.8,0,1,0.1,1.6h-1.9c0.3-0.7,0.4-1.5,0.4-2.2v-3.9c0-0.2-0.1-0.8-0.2-1.2h1.6
		l0,1.4L72.1,35.5z"/>
	<path d="M80.5,36.3h-1.6v4.5c0,1,0.2,1.4,0.4,1.8l-2.2,0c0.3-0.6,0.4-1.1,0.4-1.9v-4.3l-0.7,0c0.4-0.4,0.4-0.6,0.7-1v-0.4
		c0-0.8,0-2.9,2.4-2.9c0.5,0,1,0.1,1.3,0.2C81,32.8,81,33,80.9,33.7c-0.2-0.4-0.4-0.7-1.1-0.7c-1,0-1,1-1,1.4v0.9h1.6V36.3z"/>
	<path d="M87.4,38.6c0,3.2-2.7,4-3.6,4c-1.4,0-3.3-0.9-3.3-3.5c0-3.1,2.1-3.7,3.3-4C85.8,35.1,87.4,36.5,87.4,38.6z M86.1,38.9
		c0-1.5-0.9-2.8-2.2-2.8c-1,0-1.8,0.9-1.8,2.5c0,2.1,1.4,3.1,2.7,3C85.3,41.2,86.1,40.5,86.1,38.9z"/>
	<path d="M90.5,35.2c-0.1,0.4-0.1,0.5-0.1,1v0.9c0.4-0.8,0.9-1.9,2.1-1.9c0.3,0,0.4,0.1,0.7,0.2L93,37.2c-0.4-0.4-0.6-0.5-1.1-0.5
		c-0.8,0-1.2,0.4-1.5,0.6v3.5c0,1.1,0.1,1.3,0.4,1.7h-2.1c0.3-0.5,0.4-0.7,0.4-1.4v-4.7c0-0.3,0-0.6-0.2-1.3H90.5z"/>
	<path d="M95.7,35.2v1.6c0.1-0.2,0.5-0.9,0.6-1c0.5-0.6,1.3-0.6,1.4-0.6c1.4,0,1.7,1.2,1.8,1.6c0.1-0.2,0.5-0.9,0.6-1
		c0.5-0.6,1.1-0.6,1.4-0.6c1.1,0,1.5,0.7,1.6,0.9c0.2,0.4,0.2,0.8,0.2,1.1v4.3c0,0.4,0,0.6,0.2,1.1h-1.8c0.2-0.4,0.2-0.5,0.2-1.1
		v-4.2c0-0.6-0.6-1.1-1.1-1.1c-0.6,0-1,0.5-1.2,0.8v4.3c0,0.6,0.1,0.8,0.3,1.2h-1.9c0.2-0.4,0.3-0.5,0.3-1.2v-3.6c0-0.4,0-0.7-0.2-1
		c-0.2-0.3-0.5-0.5-0.8-0.5c-0.5,0-0.9,0.3-1.3,0.7v4.3c0,0.5,0,0.7,0.3,1.2h-2c0.2-0.5,0.3-0.6,0.3-1.2v-4.7c0-0.8-0.1-1.1-0.3-1.5
		H95.7z"/>
	<path d="M105.9,35.5l0.9-0.2c0.3-0.1,0.5-0.1,0.6-0.1c1.4,0,1.9,0.8,2.1,1c0.2,0.4,0.2,0.6,0.2,1.1l0.1,4.2c0,0.2,0.1,0.6,0.3,1
		h-1.7v-1c-0.5,0.4-0.7,0.5-1.2,1c-0.1,0-0.4,0.1-0.6,0.1c-0.6,0-1.8-0.5-1.8-1.7c0-1.3,1.6-2,2.6-2.4c0.7-0.3,0.8-0.3,1.1-0.5v-0.4
		c0-0.4,0-0.5-0.1-0.6c-0.2-0.4-0.8-0.7-1.5-0.7c-0.5,0-0.9,0.2-1.4,0.5L105.9,35.5z M108.4,39.3h-1.9c-0.2,0.4-0.3,0.7-0.3,1.1
		c0,0.8,0.7,1.1,1.4,1.1c0.3,0,0.5-0.1,0.8-0.1V39.3z"/>
	<path d="M115.3,35.4v0.9h-1.9v2.6c0,1.7,0,1.8,0.1,2c0.1,0.3,0.5,0.6,0.9,0.6c0.2,0,0.4,0,1-0.2l-0.8,1c-0.5,0.1-0.8,0.2-1.2,0.2
		c-1.1,0-1.4-0.8-1.4-1.2c0-0.3,0-0.6,0-1v-4.1h-1c0.2-0.3,0.4-0.5,2.4-2.5v1.5H115.3z"/>
	<path d="M118.3,35.2c-0.2,0.3-0.4,0.7-0.4,1.8v3.5c0,1.3,0.2,1.7,0.4,2h-2.3c0.3-0.5,0.4-0.7,0.4-2.1v-3.4c0-0.9-0.1-1.3-0.4-1.8
		H118.3z M118.3,33.2c0,0.4-0.3,1-1,1c-0.5,0-1-0.4-1-1.1c0-0.7,0.5-1.1,1-1.1C117.9,32.1,118.3,32.7,118.3,33.2z"/>
	<path d="M126.3,38.6c0,3.2-2.7,4-3.6,4c-1.4,0-3.3-0.9-3.3-3.5c0-3.1,2.1-3.7,3.3-4C124.8,35.1,126.3,36.5,126.3,38.6z M125,38.9
		c0-1.5-0.9-2.8-2.2-2.8c-1,0-1.8,0.9-1.8,2.5c0,2.1,1.4,3.1,2.7,3C124.2,41.2,125,40.5,125,38.9z"/>
	<path d="M130.3,35.5c0.3-0.2,0.6-0.3,1.1-0.3c0.7,0,1.8,0.5,1.8,1.9v4.2c0,0.6,0.1,0.8,0.3,1.3h-1.9c0.2-0.6,0.2-0.9,0.2-1.2v-4
		c0-0.3-0.3-1-1.3-1c-0.7,0-1,0.2-1.3,0.4v4.2c0,0.8,0,1,0.1,1.6h-1.9c0.3-0.7,0.4-1.5,0.4-2.2v-3.9c0-0.2-0.1-0.8-0.2-1.2h1.6
		l0,1.4L130.3,35.5z"/>
	<path d="M65.8,49.2c0-1.2-0.2-1.8-0.3-2.2l2,0c2.7,0,4,1.6,4,3c0,1.7-1.5,2.5-2,2.8c0.9,1.7,2.2,3.2,3.5,4.7h-1.4
		c-1.4-1.2-2.1-2-4.2-4.9v2.6c0,0.8,0,1.1,0.3,2.3h-2.1c0.2-1,0.3-1.8,0.3-2.7V49.2z M67.4,52.5c1-0.3,2.6-0.7,2.6-2.3
		c0-0.8-0.5-2-2.6-2.3V52.5z"/>
	<path d="M78.2,57.2c-0.4,0.2-0.9,0.3-1.6,0.3c-2.3,0-2.9-1.9-2.9-3.5c0-2.4,1.2-3.8,2.9-3.8c1.2,0,2.2,0.7,2.4,2.1
		c0.1,0.6,0.1,0.9,0.1,1.7l-3.9,0.1c0,0.5,0.2,2.2,1.8,2.2c0.6,0,1.1-0.2,1.9-0.6L78.2,57.2z M78.2,53.2c0-1.3-0.4-2.1-1.5-2.1
		c-1.1,0-1.4,0.8-1.5,2.1H78.2z"/>
	<path d="M83.9,51.7c-0.3-0.3-0.7-0.6-1.4-0.6c-0.7,0-1.1,0.5-1.1,1c0,0.6,0.3,0.8,1.2,1.4c0.8,0.5,1.3,1,1.3,2
		c0,1.2-0.8,2.1-2.4,2.1c-0.2,0-0.9,0-1.8-0.3l0.1-1.9c0.7,1,1,1.4,1.6,1.4c0.8,0,1.1-0.5,1.1-1c0-0.6-0.4-0.9-1.2-1.4
		c-0.5-0.3-1.4-0.9-1.4-2.1c0-0.8,0.7-2.1,2.5-2.1c0.6,0,0.9,0.1,1.4,0.3V51.7z"/>
	<path d="M91.5,53.6c0,3.2-2.7,4-3.6,4c-1.4,0-3.3-0.9-3.3-3.5c0-3.1,2.1-3.7,3.3-4C89.9,50.1,91.5,51.5,91.5,53.6z M90.1,53.9
		c0-1.5-0.9-2.8-2.2-2.8c-1,0-1.8,0.9-1.8,2.5c0,2.1,1.4,3.1,2.7,3C89.4,56.2,90.1,55.5,90.1,53.9z"/>
	<path d="M94.8,50.2c-0.3,0.4-0.4,0.6-0.4,1.2v4c0.2,1,1,1,1.1,1c0.6,0,1.1-0.3,1.4-0.5v-4c0-0.7,0-1.1-0.3-1.7l2.1,0
		c-0.2,0.4-0.4,0.8-0.4,1.4v4.3c0,1,0.2,1.5,0.3,1.7h-1.7c0.1-0.7,0.1-0.8,0.1-1.5l-1.1,1.2c-0.2,0.1-0.6,0.3-1.1,0.3
		c-0.3,0-1.2-0.1-1.8-1.3l0-4.1c0-1-0.1-1.4-0.4-1.9H94.8z"/>
	<path d="M102.3,50.2c-0.1,0.4-0.1,0.5-0.1,1v0.9c0.4-0.8,0.9-1.9,2.1-1.9c0.3,0,0.4,0.1,0.7,0.2l-0.2,1.8c-0.4-0.4-0.6-0.5-1.1-0.5
		c-0.8,0-1.2,0.4-1.5,0.6v3.5c0,1.1,0.1,1.3,0.4,1.7h-2.1c0.3-0.5,0.4-0.7,0.4-1.4v-4.7c0-0.3,0-0.6-0.2-1.3H102.3z"/>
	<path d="M110.4,51.9c-0.3-0.3-0.7-0.7-1.6-0.7c-1.6,0-2.1,1.5-2.1,2.5c0,2.1,1.4,2.7,2.3,2.7c0.6,0,1.1-0.2,1.6-0.3l-0.8,1.2
		c-0.3,0.1-0.7,0.2-1.2,0.2c-1.9,0-3.4-1.5-3.4-3.4c0-1,0.5-3.9,3.8-3.9c0.6,0,1,0.1,1.4,0.1L110.4,51.9z"/>
	<path d="M115.7,57.2c-0.4,0.2-0.9,0.3-1.6,0.3c-2.3,0-2.9-1.9-2.9-3.5c0-2.4,1.2-3.8,2.9-3.8c1.2,0,2.2,0.7,2.4,2.1
		c0.1,0.6,0.1,0.9,0.1,1.7l-3.9,0.1c0,0.5,0.2,2.2,1.8,2.2c0.6,0,1.1-0.2,1.9-0.6L115.7,57.2z M115.7,53.2c0-1.3-0.4-2.1-1.5-2.1
		c-1.1,0-1.4,0.8-1.5,2.1H115.7z"/>
	<path d="M121.4,51.7c-0.3-0.3-0.7-0.6-1.4-0.6c-0.7,0-1.1,0.5-1.1,1c0,0.6,0.3,0.8,1.2,1.4c0.8,0.5,1.3,1,1.3,2
		c0,1.2-0.8,2.1-2.4,2.1c-0.2,0-0.9,0-1.8-0.3l0.1-1.9c0.7,1,1,1.4,1.6,1.4c0.8,0,1.1-0.5,1.1-1c0-0.6-0.4-0.9-1.2-1.4
		c-0.5-0.3-1.4-0.9-1.4-2.1c0-0.8,0.7-2.1,2.5-2.1c0.6,0,0.9,0.1,1.4,0.3V51.7z"/>
</g>
</svg>
