<?xml version="1.0" standalone="no"?>
<!DOCTYPE svg PUBLIC "-//W3C//DTD SVG 20010904//EN"
 "http://www.w3.org/TR/2001/REC-SVG-20010904/DTD/svg10.dtd">
<svg version="1.0" xmlns="http://www.w3.org/2000/svg"
 width="159.000000pt" height="159.000000pt" viewBox="0 0 159.000000 159.000000"
 preserveAspectRatio="xMidYMid meet">
<metadata>
Created by potrace 1.11, written by Peter Selinger 2001-2013
</metadata>
<g transform="translate(0.000000,159.000000) scale(0.100000,-0.100000)"
fill="#000000" stroke="none">
<path d="M0 1413 l0 -178 19 40 c20 45 53 65 107 65 49 0 94 -45 94 -94 l0
-36 -91 0 c-89 0 -90 0 -84 -22 16 -55 81 -75 127 -38 26 20 38 18 38 -6 0
-19 -53 -44 -90 -44 -56 0 -93 29 -113 90 -3 8 -6 -256 -6 -587 l-1 -603 240
0 240 0 0 85 0 85 30 0 30 0 0 95 0 95 -73 0 -73 0 -52 53 -52 53 0 151 0 152
-32 3 -33 3 0 80 0 80 188 3 188 2 -3 -82 c-3 -82 -3 -83 -30 -86 -28 -3 -28
-4 -28 -78 l0 -75 123 3 122 3 3 72 3 72 -33 3 -33 3 0 80 0 80 183 3 182 2 0
-85 0 -85 -30 0 -30 0 0 -75 0 -75 165 0 165 0 0 -80 0 -80 -47 -1 c-27 -1
-51 -1 -54 -1 -3 1 -36 -30 -73 -67 l-68 -68 77 -74 c65 -63 82 -75 118 -79
l42 -5 3 -83 3 -82 114 0 115 0 0 795 0 795 -795 0 -795 0 0 -177z m840 -133
c0 -144 -2 -170 -15 -170 -13 0 -15 26 -15 170 0 144 2 170 15 170 13 0 15
-26 15 -170z m-300 45 c0 -19 9 -19 34 0 39 30 122 13 150 -29 38 -59 20 -153
-35 -181 -36 -19 -90 -19 -115 0 -10 8 -22 15 -26 15 -5 0 -8 -31 -8 -70 0
-56 -3 -70 -15 -70 -13 0 -15 26 -15 175 0 149 2 175 15 175 8 0 15 -7 15 -15z
m544 5 c33 -12 66 -66 66 -108 0 -93 -92 -147 -182 -108 -13 6 -20 2 -27 -15
-5 -13 -29 -41 -54 -61 -43 -36 -45 -36 -61 -19 -16 17 -14 21 32 60 28 22 55
41 60 41 20 0 22 18 7 54 -44 104 52 197 159 156z m166 -6 c0 -14 2 -14 22 0
29 20 68 21 68 1 0 -8 -9 -15 -19 -15 -10 0 -29 -8 -41 -18 -20 -16 -24 -31
-28 -100 -3 -61 -8 -82 -18 -82 -11 0 -14 24 -14 115 0 96 3 115 15 115 8 0
15 -7 15 -16z m301 -13 c21 -22 29 -39 29 -65 l0 -36 -91 0 c-89 0 -90 0 -84
-22 16 -55 81 -75 127 -38 26 20 38 18 38 -6 0 -18 -52 -44 -89 -44 -89 0
-140 82 -105 169 30 75 120 96 175 42z m-1216 -21 l28 -40 29 40 c17 23 38 40
49 40 23 0 20 -6 -25 -63 -22 -28 -28 -42 -21 -52 6 -8 25 -35 43 -60 33 -44
33 -45 10 -45 -16 0 -32 14 -54 45 l-31 45 -32 -45 c-20 -28 -40 -45 -52 -45
-23 0 -21 7 28 67 37 47 37 46 -14 111 -34 42 -34 42 -10 42 17 0 33 -12 52
-40z"/>
<path d="M570 1290 c-58 -58 -22 -160 57 -160 77 0 110 103 53 160 -26 26 -84
26 -110 0z"/>
<path d="M980 1290 c-56 -56 -24 -160 50 -160 70 0 106 94 59 154 -26 33 -79
36 -109 6z"/>
<path d="M1428 1293 c-8 -10 -18 -26 -21 -35 -6 -16 1 -18 68 -18 41 0 75 4
75 9 0 4 -9 20 -21 35 -25 31 -77 36 -101 9z"/>
<path d="M68 1293 c-8 -10 -18 -26 -21 -35 -6 -16 1 -18 68 -18 41 0 75 4 75
9 0 4 -9 20 -21 35 -25 31 -77 36 -101 9z"/>
<path d="M250 851 c0 -57 1 -59 30 -64 l30 -6 0 -154 0 -153 53 -52 53 -52 72
0 73 0 -3 -108 c-3 -106 -3 -107 -28 -111 -31 -4 -40 -17 -40 -58 0 -64 -4
-63 176 -63 l164 0 0 59 c0 58 -1 60 -27 63 -24 3 -28 8 -31 41 l-3 37 71 0
c69 0 72 -1 110 -39 38 -37 40 -43 40 -100 l0 -61 175 0 175 0 0 60 0 60 -38
0 c-34 0 -46 8 -125 88 l-88 88 80 77 c75 73 81 77 125 77 l46 0 0 65 0 65
-165 0 -165 0 0 84 c0 88 4 96 51 96 18 0 20 6 17 58 l-3 57 -167 3 -168 2 0
-59 c0 -58 1 -60 28 -63 27 -3 27 -3 30 -90 l3 -88 -141 0 -140 0 0 85 0 86
30 6 c29 5 30 7 30 64 l0 59 -165 0 -165 0 0 -59z m305 -1 c0 -31 -3 -35 -30
-40 l-30 -5 0 -160 0 -160 30 -5 c27 -5 30 -9 30 -40 l0 -35 -69 -3 -69 -3
-44 43 -43 42 0 163 0 163 -25 0 c-23 0 -25 4 -25 40 l0 41 138 -3 137 -3 0
-35z m495 0 c0 -38 -2 -40 -30 -40 l-30 0 0 -162 0 -163 -41 -42 c-40 -42 -41
-43 -110 -43 l-69 0 0 40 c0 38 2 40 30 40 l30 0 -2 163 -3 162 -27 3 c-25 3
-28 7 -28 43 l0 39 140 0 140 0 0 -40z m-250 -310 c0 -38 -2 -40 -30 -40 l-31
0 3 -62 3 -63 83 -3 83 -3 62 61 c38 38 57 64 50 67 -8 2 -13 22 -13 44 l0 39
150 0 150 0 0 -40 c0 -40 0 -40 -38 -40 -34 0 -46 -8 -127 -90 l-90 -91 96
-94 c80 -80 101 -95 128 -95 30 0 31 -2 31 -40 l0 -41 -147 3 -148 3 -3 38
c-2 21 1 37 7 37 22 0 10 20 -46 74 l-58 56 -85 -2 -85 -3 0 -60 c0 -58 1 -60
28 -63 24 -3 27 -7 27 -43 l0 -40 -137 3 -138 3 -3 38 c-3 35 -2 37 27 37 l31
0 0 185 0 185 -30 0 c-28 0 -30 2 -30 40 l0 40 140 0 140 0 0 -40z"/>
<path d="M788 208 c-9 -23 3 -38 28 -38 23 0 24 -2 24 -85 l0 -85 65 0 65 0 0
74 c0 73 0 74 -40 110 -35 31 -47 36 -89 36 -30 0 -51 -5 -53 -12z"/>
</g>
</svg>
